<?xml version="1.0" encoding="UTF-8" standalone="no"?>
<!DOCTYPE svg PUBLIC "-//W3C//DTD SVG 20010904//EN" "http://www.w3.org/TR/2001/REC-SVG-20010904/DTD/svg10.dtd">
<svg version="1.0" xmlns="http://www.w3.org/2000/svg" width="512.000000pt" height="512.000000pt" viewBox="0 0 512.000000 512.000000" preserveAspectRatio="xMidYMid meet">

<g transform="translate(0.000000,512.000000) scale(0.100000,-0.100000)" fill="#000000" stroke="none">
<path d="M2596 5104 c-3 -8 -10 -13 -15 -9 -6 3 -15 -3 -20 -12 -10 -17 -12 -17 -25 0 -9 12 -32 20 -65 23 -49 5 -51 4 -51 -21 0 -15 -6 -25 -15 -25 -24 0 -34 -33 -47 -142 -6 -57 -16 -107 -22 -113 -14 -12 -18 -65 -7 -79 12 -16 7 -222 -6 -238 -6 -7 -14 -31 -18 -53 -7 -41 -16 -68 -41 -118 -12 -25 -11 -35 7 -90 11 -34 22 -82 24 -107 1 -25 6 -53 10 -63 4 -10 5 -69 3 -131 -3 -74 -1 -135 8 -177 7 -35 11 -74 7 -86 -3 -14 -1 -23 6 -23 7 0 11 -26 11 -73 0 -39 4 -86 9 -104 6 -20 5 -35 -2 -42 -7 -7 -7 -14 2 -24 19 -23 17 -203 -2 -260 -10 -26 -17 -58 -17 -70 0 -13 -5 -28 -10 -33 -6 -6 -12 -19 -14 -30 -3 -10 -7 -26 -10 -34 -4 -10 3 -25 19 -40 18 -17 25 -34 25 -61 0 -21 5 -50 11 -66 7 -15 11 -43 10 -61 -2 -34 32 -102 51 -102 5 0 17 -7 26 -16 12 -13 26 -15 66 -9 66 10 94 10 133 0 29 -7 33 -4 49 26 21 40 53 187 54 244 0 50 10 86 20 80 9 -6 3 601 -5 616 -3 5 0 28 6 51 7 24 12 47 10 52 -1 4 4 15 11 23 17 21 25 203 8 203 -7 0 -10 6 -7 14 3 8 1 30 -5 48 -6 18 -12 105 -14 193 -4 194 -7 237 -24 338 -12 68 -12 80 1 87 11 7 11 12 1 22 -15 15 -16 41 -2 68 6 11 15 29 20 40 13 25 13 73 0 65 -5 -3 -12 6 -16 21 -4 16 -2 29 6 34 9 6 9 13 -3 31 -8 13 -18 40 -22 59 -4 19 -10 40 -13 45 -7 11 -8 17 -10 52 -2 29 -59 93 -82 93 -10 0 -21 -7 -24 -16z"/>
<path d="M1535 4200 c-40 -9 -220 -88 -248 -110 -38 -29 -85 -51 -89 -40 -5 17 -83 -47 -127 -104 -22 -30 -79 -87 -126 -127 -68 -57 -105 -99 -172 -196 -47 -68 -92 -138 -101 -156 -16 -32 -36 -56 -103 -125 -19 -20 -45 -50 -56 -67 -34 -49 -82 -172 -76 -194 3 -12 1 -21 -4 -21 -6 0 -16 -42 -23 -92 -8 -51 -24 -119 -37 -151 -13 -32 -21 -62 -19 -66 3 -4 -2 -32 -10 -62 -13 -48 -16 -128 -13 -367 0 -18 5 -30 10 -27 14 9 11 -69 -3 -83 -9 -9 -9 -15 0 -24 16 -16 15 -64 -1 -119 -14 -44 -11 -123 3 -114 4 3 13 -9 20 -25 9 -23 10 -33 1 -44 -9 -11 -8 -17 4 -29 8 -9 15 -19 15 -24 0 -4 6 -20 14 -35 8 -14 17 -46 21 -70 12 -76 56 -231 85 -298 46 -104 80 -201 70 -195 -19 12 -10 -11 35 -90 64 -112 133 -198 297 -371 191 -200 296 -296 395 -361 187 -122 523 -260 723 -298 47 -9 93 -20 103 -26 20 -11 92 -26 322 -68 72 -13 264 -14 355 -1 161 21 215 31 220 39 10 16 47 30 67 25 23 -6 183 51 288 102 39 19 111 51 160 71 116 46 218 97 247 124 13 11 72 52 132 90 99 64 209 164 363 332 28 31 105 145 145 216 17 31 40 66 51 78 11 12 16 27 12 34 -6 8 -4 10 5 4 8 -5 11 -3 8 6 -6 17 66 164 85 176 20 11 37 47 37 76 0 28 43 147 65 181 24 36 64 144 85 230 20 80 25 117 11 81 -15 -39 1 140 16 183 12 32 13 46 5 54 -7 7 -12 45 -12 92 0 45 -6 115 -12 156 -6 41 -12 95 -13 120 -1 25 -7 66 -12 92 -7 32 -7 46 0 41 16 -10 -1 72 -28 138 -14 32 -30 94 -36 136 -9 63 -23 104 -76 213 -37 74 -67 142 -69 150 -9 61 -17 100 -26 128 -13 44 -75 137 -91 137 -6 0 -12 5 -12 11 0 6 -23 30 -50 54 -27 24 -61 61 -75 84 -63 103 -213 234 -324 284 -15 7 -30 21 -33 32 -3 11 -13 20 -23 20 -11 0 -38 25 -63 58 -24 31 -49 56 -55 55 -22 -5 -62 17 -62 33 0 10 -6 14 -14 11 -8 -3 -35 1 -61 9 -26 7 -51 12 -55 9 -5 -3 -10 0 -12 6 -2 6 -29 12 -61 13 -46 1 -60 -3 -78 -21 -18 -18 -20 -25 -10 -37 8 -10 9 -16 1 -21 -8 -5 -8 -10 0 -20 9 -10 5 -16 -16 -27 -14 -7 -36 -30 -48 -51 -20 -37 -21 -38 -2 -52 10 -8 16 -21 13 -29 -7 -16 76 -97 125 -122 15 -8 28 -22 28 -32 1 -23 26 -56 38 -48 12 7 92 -50 124 -89 23 -28 33 -46 37 -70 2 -5 10 -18 19 -28 16 -18 19 -24 28 -76 5 -22 13 -31 34 -36 34 -7 110 -64 110 -82 0 -7 8 -13 18 -13 19 -1 70 -67 92 -122 9 -21 35 -57 58 -81 24 -24 42 -50 40 -58 -2 -8 2 -13 9 -12 7 2 20 -14 30 -35 9 -20 27 -54 40 -74 13 -21 23 -44 23 -52 0 -8 6 -16 13 -19 18 -7 47 -103 51 -167 2 -51 -3 -99 -19 -163 -6 -22 -3 -28 19 -38 18 -9 26 -20 26 -38 0 -14 9 -41 20 -59 11 -18 20 -44 20 -59 0 -15 9 -37 21 -49 20 -22 20 -25 8 -156 -8 -89 -18 -143 -29 -164 -10 -17 -21 -50 -25 -73 -4 -22 -11 -41 -16 -41 -5 0 -8 -26 -8 -57 0 -44 -11 -92 -48 -198 -52 -151 -116 -270 -196 -364 -87 -102 -180 -200 -188 -198 -4 1 -28 -15 -53 -36 -25 -21 -61 -44 -79 -52 -19 -8 -59 -43 -91 -79 -80 -91 -284 -236 -333 -236 -11 0 -31 -10 -44 -23 -26 -25 -155 -74 -283 -107 -78 -21 -293 -45 -521 -59 -92 -6 -127 -4 -149 6 -35 16 -66 17 -66 3 0 -31 -479 100 -533 146 -16 13 -40 24 -54 24 -28 0 -137 65 -248 146 -85 62 -217 198 -244 251 -11 22 -27 45 -35 52 -9 8 -16 17 -16 22 0 4 -21 38 -46 74 -26 36 -44 69 -41 72 4 3 -9 35 -28 71 -19 36 -35 73 -35 83 0 9 -24 39 -53 66 -43 38 -58 61 -76 113 -13 36 -38 101 -56 145 -41 98 -62 210 -43 232 16 19 15 57 -1 77 -18 21 -21 237 -4 258 7 8 16 36 19 62 4 26 11 49 16 52 4 3 15 21 23 40 8 19 18 34 24 34 6 0 6 12 0 32 -13 46 -12 188 2 188 6 0 8 9 4 20 -9 29 29 151 65 207 17 26 30 54 30 63 0 29 33 115 48 126 8 6 12 16 8 23 -4 6 12 44 36 84 24 39 49 84 56 100 6 15 16 27 22 27 5 0 10 7 10 15 0 36 151 195 185 195 4 0 27 14 52 30 24 17 51 30 59 30 8 0 22 4 32 9 9 5 25 12 35 15 12 4 17 16 17 40 0 28 6 37 35 55 20 11 44 34 53 51 9 16 30 35 45 41 61 25 98 113 74 171 -8 18 -26 44 -41 57 -20 19 -26 34 -26 68 0 27 -5 44 -12 45 -35 4 -66 3 -93 -2z"/>
</g>
</svg>